<?xml version="1.0" standalone="no"?>
<!DOCTYPE svg PUBLIC "-//W3C//DTD SVG 20010904//EN"
 "http://www.w3.org/TR/2001/REC-SVG-20010904/DTD/svg10.dtd">
<svg version="1.0" xmlns="http://www.w3.org/2000/svg"
 width="341.000000pt" height="124.000000pt" viewBox="0 0 341.000000 124.000000"
 preserveAspectRatio="xMidYMid meet">

<g transform="translate(0.000000,124.000000) scale(0.100000,-0.100000)"
fill="#000000" stroke="none">
<path d="M0 620 l0 -620 1705 0 1705 0 0 620 0 620 -1705 0 -1705 0 0 -620z
m1220 420 c0 -5 -4 -10 -10 -10 -5 0 -10 5 -10 10 0 6 5 10 10 10 6 0 10 -4
10 -10z m625 0 c3 -5 -1 -10 -9 -10 -9 0 -16 5 -16 10 0 6 4 10 9 10 6 0 13
-4 16 -10z m168 -7 c-15 -11 -13 -14 15 -19 20 -4 32 -13 32 -22 0 -13 -3 -13
-12 -4 -15 15 -72 16 -99 2 -15 -8 -19 -21 -19 -60 0 -41 4 -52 26 -69 40 -32
71 -28 79 10 5 22 3 34 -6 40 -10 6 -7 9 12 9 24 0 25 -2 20 -42 -6 -43 -6
-43 -52 -46 -56 -4 -95 23 -105 72 -8 43 18 94 51 102 24 6 35 24 15 24 -5 0
-10 4 -10 8 0 5 16 8 35 8 30 -1 33 -3 18 -13z m-1376 -90 c13 -37 30 -77 38
-90 14 -21 14 -23 -4 -23 -13 0 -23 11 -31 35 -15 46 -53 49 -68 6 -6 -16 -8
-32 -5 -35 4 -3 -2 -6 -11 -6 -10 0 -16 5 -13 13 2 6 17 49 33 94 15 45 30 80
33 78 2 -3 15 -35 28 -72z m-275 32 l-4 -35 52 0 52 0 -4 35 c-3 28 0 35 13
35 13 0 16 -10 13 -66 -2 -36 1 -76 6 -90 8 -20 7 -24 -10 -24 -17 0 -20 7
-20 45 0 39 -3 45 -24 51 -13 3 -35 4 -47 2 -22 -3 -24 -7 -22 -50 2 -37 -1
-48 -12 -48 -12 0 -15 17 -15 90 0 67 3 90 13 90 9 0 12 -11 9 -35z m387 -6
l23 -41 19 28 c10 16 19 35 19 42 0 6 7 12 15 12 11 0 7 -13 -16 -52 -23 -39
-30 -61 -27 -90 3 -29 0 -38 -12 -38 -12 0 -15 8 -12 34 4 35 -37 130 -60 139
-7 3 -4 6 7 6 13 1 28 -13 44 -40z m210 -26 c12 -38 29 -78 37 -90 13 -21 13
-23 -5 -23 -15 0 -23 9 -29 33 -6 23 -15 33 -31 35 -29 5 -40 -6 -43 -41 -1
-15 -8 -27 -15 -27 -17 0 -17 -4 13 76 14 38 28 77 31 87 9 31 20 18 42 -50z
m126 -15 c0 -73 2 -83 19 -86 10 -2 22 2 27 9 4 7 11 10 14 7 15 -15 -8 -28
-48 -28 l-42 0 0 90 c0 73 3 90 15 90 12 0 15 -16 15 -82z m140 -8 c0 -73 -3
-90 -15 -90 -12 0 -15 17 -15 90 0 73 3 90 15 90 12 0 15 -17 15 -90z m144 23
l62 -68 -3 68 c-2 48 0 67 10 67 9 0 12 -25 12 -90 0 -49 -3 -90 -7 -90 -5 0
-33 29 -63 64 -30 36 -59 65 -64 65 -4 1 -6 -28 -4 -64 3 -45 0 -65 -8 -65 -7
0 -11 28 -10 90 1 49 4 90 7 90 4 0 35 -30 68 -67z m366 42 c35 -34 35 -96 0
-130 -19 -20 -34 -25 -77 -25 l-53 0 0 90 0 90 53 0 c43 0 58 -5 77 -25z m112
-65 c1 -78 -1 -90 -15 -90 -15 0 -17 12 -17 90 0 74 3 90 15 90 13 0 16 -17
17 -90z m363 82 c0 -5 -14 -7 -31 -4 -29 4 -30 3 -27 -29 3 -30 6 -34 31 -34
15 1 27 -5 27 -12 0 -9 -9 -11 -30 -6 -27 5 -30 3 -30 -20 0 -53 28 -74 59
-44 11 10 13 9 9 -3 -3 -9 -20 -16 -46 -18 l-42 -3 0 90 0 91 40 0 c22 0 40
-4 40 -8z m161 -18 c7 -20 6 -32 -5 -49 -14 -21 -13 -25 10 -56 13 -18 30 -36
36 -41 9 -5 10 -8 1 -8 -25 0 -43 13 -64 46 -16 27 -18 38 -9 49 19 23 8 70
-17 73 -21 3 -23 -1 -23 -37 0 -26 5 -41 13 -41 9 0 8 -3 -2 -9 -9 -6 -12 -21
-9 -45 3 -28 0 -36 -12 -36 -12 0 -15 15 -15 90 l0 90 43 0 c37 0 44 -4 53
-26z m234 -31 c10 -32 26 -73 36 -90 18 -32 18 -33 -1 -33 -14 0 -22 10 -28
33 -6 23 -15 33 -31 35 -29 5 -40 -6 -43 -41 -2 -19 -8 -27 -21 -27 -14 0 -17
4 -10 13 5 6 15 26 21 42 5 17 18 51 28 78 9 26 20 47 23 47 4 0 15 -26 26
-57z m230 32 c29 -28 33 -71 10 -114 -17 -35 -32 -41 -95 -41 l-48 0 1 90 2
90 53 0 c43 0 58 -5 77 -25z m110 -65 c1 -75 -2 -90 -15 -90 -12 0 -15 15 -15
90 0 73 3 90 15 90 12 0 15 -17 15 -90z m85 9 c0 -5 -7 -9 -15 -9 -15 0 -20
12 -9 23 8 8 24 -1 24 -14z m0 -80 c0 -5 -7 -9 -15 -9 -15 0 -20 12 -9 23 8 8
24 -1 24 -14z m-2619 -241 c19 -39 64 -132 100 -207 l66 -136 57 120 c32 66
71 152 87 191 35 84 52 109 67 101 11 -8 13 -22 38 -267 9 -91 23 -180 30
-197 12 -30 17 -33 57 -33 29 0 49 6 59 18 9 9 48 107 87 217 85 238 98 268
113 263 7 -3 52 -107 100 -233 49 -126 96 -237 105 -247 9 -10 24 -18 34 -18
24 0 33 -16 13 -24 -20 -8 -82 -8 -111 0 -13 4 -23 14 -23 23 0 9 -13 50 -28
91 l-28 75 -73 0 -74 0 -23 -70 c-29 -87 -29 -91 -2 -98 12 -4 19 -10 14 -14
-10 -10 -95 -12 -212 -6 l-91 5 0 47 c-2 82 -26 302 -33 294 -4 -4 -35 -69
-70 -143 -34 -74 -69 -150 -77 -168 -8 -17 -22 -32 -29 -32 -13 0 -148 262
-170 330 -7 23 -9 21 -15 -20 -4 -25 -10 -100 -15 -167 -7 -123 -7 -123 15
-123 14 0 21 -5 19 -12 -3 -9 -28 -13 -72 -14 -65 -1 -98 12 -57 23 27 7 26 6
51 228 30 274 30 275 44 275 7 0 29 -32 47 -72z m1420 53 c128 -39 198 -187
155 -323 -25 -76 -60 -121 -119 -154 -51 -29 -54 -29 -211 -29 -109 0 -161 4
-163 11 -2 6 5 14 16 17 19 5 20 15 23 163 2 88 1 190 0 227 -3 62 -6 69 -28
78 -14 5 -22 14 -19 19 8 14 297 6 346 -9z m631 0 c64 -20 121 -71 145 -131
61 -150 -13 -325 -153 -366 -63 -18 -325 -17 -331 2 -2 6 5 14 17 17 22 6 22
1 22 227 1 236 0 240 -21 240 -21 0 -35 13 -24 23 10 11 305 0 345 -12z m568
-11 c0 -36 -11 -70 -21 -70 -5 0 -14 11 -19 25 -9 23 -15 25 -69 25 l-59 0 -1
-91 -2 -91 63 4 c35 2 72 8 82 13 18 8 19 5 12 -46 -8 -56 -15 -73 -23 -51
-11 29 -36 42 -82 42 l-48 0 -2 -70 c-3 -109 5 -138 40 -145 16 -4 47 -4 69 0
31 5 41 12 49 37 15 41 33 26 25 -20 -11 -62 -13 -63 -157 -60 -85 2 -132 7
-134 14 -2 6 5 14 17 17 19 5 20 12 20 231 l0 226 -26 10 c-48 19 -15 25 125
25 l141 0 0 -25z"/>
<path d="M597 956 c-11 -29 -8 -46 8 -46 16 0 18 14 6 44 -7 18 -8 18 -14 2z"/>
<path d="M916 945 c-10 -26 -7 -35 9 -35 17 0 19 18 6 38 -7 11 -10 10 -15 -3z"/>
<path d="M1632 923 c3 -78 3 -78 32 -81 40 -5 76 31 76 75 0 44 -37 83 -80 83
l-31 0 3 -77z"/>
<path d="M2567 953 c-13 -12 -7 -43 8 -43 8 0 15 6 15 13 0 18 -15 38 -23 30z"/>
<path d="M2730 919 l0 -80 37 3 c25 2 42 11 56 30 18 24 19 32 8 67 -13 44
-34 61 -75 61 -26 0 -26 -1 -26 -81z"/>
<path d="M1131 478 c-11 -40 -21 -76 -21 -80 0 -5 23 -8 50 -8 28 0 50 3 50 6
0 18 -44 154 -50 154 -4 0 -17 -33 -29 -72z"/>
<path d="M1609 589 c-1 -30 -1 -126 0 -214 2 -179 1 -178 74 -189 50 -8 132
14 172 46 41 32 65 93 65 166 0 143 -80 226 -235 239 l-75 6 -1 -54z"/>
<path d="M2237 579 c-8 -90 0 -360 11 -371 16 -16 85 -28 127 -21 87 13 158
71 171 139 4 20 4 66 2 104 -9 124 -88 194 -230 206 l-75 7 -6 -64z"/>
</g>
</svg>
