<?xml version="1.0" encoding="UTF-8"?>
<svg xmlns="http://www.w3.org/2000/svg" xmlns:xlink="http://www.w3.org/1999/xlink" width="16pt" height="16pt" viewBox="0 0 16 16" version="1.1">
<g id="surface1">
<path style=" stroke:none;fill-rule:nonzero;fill:rgb(0%,0%,0%);fill-opacity:1;" d="M 1.859375 1.539062 C 1.84375 1.585938 1.746094 2.113281 1.65625 2.625 C 1.535156 3.324219 1.492188 4.542969 1.566406 5.246094 C 1.617188 5.722656 1.792969 6.398438 1.953125 6.742188 L 2.085938 7.03125 L 1.933594 7.347656 C 1.574219 8.097656 1.445312 8.410156 1.253906 8.964844 L 1.117188 9.347656 L 1.230469 9.675781 C 1.605469 10.714844 2.179688 11.585938 3.03125 12.398438 C 3.246094 12.601562 3.476562 12.808594 3.542969 12.855469 C 3.613281 12.902344 3.699219 12.960938 3.734375 12.988281 C 3.824219 13.0625 3.835938 13.046875 3.109375 13.601562 C 2.917969 13.742188 2.667969 13.9375 2.550781 14.035156 C 2.429688 14.128906 2.246094 14.277344 2.140625 14.363281 C 1.941406 14.519531 1.914062 14.570312 1.996094 14.640625 C 2.03125 14.667969 2.09375 14.636719 2.277344 14.492188 C 2.40625 14.398438 2.546875 14.289062 2.585938 14.261719 C 2.628906 14.234375 2.773438 14.121094 2.90625 14.015625 C 3.152344 13.820312 3.621094 13.453125 3.855469 13.277344 L 3.984375 13.179688 L 4.148438 13.269531 C 4.238281 13.320312 4.304688 13.375 4.300781 13.382812 C 4.292969 13.398438 4.175781 13.496094 4.035156 13.601562 C 3.898438 13.703125 3.671875 13.882812 3.539062 13.992188 C 3.121094 14.328125 3.046875 14.382812 2.921875 14.46875 C 2.777344 14.566406 2.746094 14.605469 2.746094 14.683594 C 2.746094 14.859375 2.875 14.773438 4.121094 13.792969 C 4.546875 13.457031 4.480469 13.476562 4.773438 13.609375 C 5.667969 14.039062 6.367188 14.226562 7.347656 14.300781 C 7.917969 14.34375 8.652344 14.304688 9.183594 14.207031 C 9.75 14.101562 10.496094 13.855469 10.945312 13.625 C 11.046875 13.570312 11.148438 13.53125 11.171875 13.53125 C 11.199219 13.53125 11.289062 13.589844 11.382812 13.660156 C 11.46875 13.730469 11.664062 13.886719 11.808594 14 C 11.957031 14.113281 12.222656 14.324219 12.398438 14.460938 C 12.789062 14.777344 12.945312 14.832031 12.890625 14.636719 C 12.875 14.589844 12.773438 14.488281 12.660156 14.398438 C 12.546875 14.3125 12.320312 14.144531 12.160156 14.015625 C 12 13.890625 11.789062 13.730469 11.6875 13.652344 C 11.316406 13.371094 11.339844 13.414062 11.519531 13.308594 C 11.601562 13.257812 11.691406 13.21875 11.710938 13.21875 C 11.730469 13.21875 11.804688 13.269531 11.882812 13.332031 C 11.953125 13.398438 12.074219 13.484375 12.144531 13.535156 C 12.207031 13.578125 12.363281 13.699219 12.492188 13.800781 C 13.015625 14.230469 13.617188 14.679688 13.648438 14.667969 C 13.667969 14.660156 13.691406 14.621094 13.699219 14.582031 C 13.707031 14.503906 13.644531 14.433594 13.359375 14.222656 C 13.289062 14.171875 13.101562 14.023438 12.9375 13.898438 C 12.777344 13.769531 12.496094 13.554688 12.320312 13.414062 C 12.140625 13.277344 11.96875 13.144531 11.9375 13.121094 C 11.882812 13.078125 11.882812 13.070312 11.941406 13.039062 C 12.046875 12.980469 12.589844 12.511719 12.839844 12.269531 C 13.53125 11.601562 14.195312 10.5625 14.5 9.679688 L 14.609375 9.355469 L 14.519531 9.070312 C 14.386719 8.667969 14.167969 8.128906 13.914062 7.59375 L 13.699219 7.136719 L 13.835938 6.828125 C 14.136719 6.175781 14.25 5.605469 14.285156 4.644531 C 14.316406 3.769531 14.234375 2.871094 14.023438 1.851562 C 13.988281 1.675781 13.953125 1.523438 13.941406 1.511719 C 13.914062 1.480469 13.21875 1.621094 12.816406 1.734375 C 12.1875 1.917969 11.636719 2.167969 11.167969 2.488281 C 11.03125 2.582031 10.875 2.683594 10.832031 2.714844 C 10.785156 2.746094 10.683594 2.835938 10.597656 2.910156 L 10.445312 3.054688 L 10.207031 2.898438 C 9.683594 2.558594 9.054688 2.292969 8.574219 2.207031 C 8.042969 2.117188 7.230469 2.152344 6.800781 2.292969 C 6.394531 2.421875 5.859375 2.675781 5.539062 2.890625 C 5.460938 2.945312 5.382812 2.992188 5.371094 2.992188 C 5.355469 2.992188 5.28125 2.9375 5.199219 2.871094 C 4.824219 2.5625 4.59375 2.40625 4.191406 2.191406 C 3.660156 1.90625 2.945312 1.664062 2.3125 1.550781 C 1.933594 1.484375 1.882812 1.480469 1.859375 1.539062 Z M 2.652344 1.949219 C 3.519531 2.164062 4.25 2.511719 4.863281 3.003906 L 5.082031 3.179688 L 4.914062 3.316406 C 4.1875 3.925781 3.230469 5.058594 2.734375 5.890625 C 2.699219 5.953125 2.632812 6.054688 2.589844 6.121094 C 2.550781 6.1875 2.460938 6.332031 2.398438 6.441406 C 2.332031 6.554688 2.269531 6.644531 2.261719 6.644531 C 2.234375 6.644531 2.066406 6.175781 2.007812 5.929688 C 1.867188 5.359375 1.835938 4.996094 1.855469 4.128906 C 1.867188 3.457031 1.890625 3.167969 1.960938 2.703125 C 2.070312 1.996094 2.109375 1.84375 2.175781 1.84375 C 2.207031 1.84375 2.417969 1.890625 2.652344 1.949219 Z M 13.71875 1.902344 C 13.730469 1.9375 13.789062 2.277344 13.851562 2.660156 C 13.957031 3.324219 13.960938 3.402344 13.960938 4.3125 C 13.960938 5.230469 13.957031 5.285156 13.863281 5.722656 C 13.742188 6.289062 13.574219 6.730469 13.507812 6.675781 C 13.480469 6.652344 13.460938 6.617188 13.460938 6.601562 C 13.460938 6.585938 13.433594 6.527344 13.394531 6.476562 C 13.359375 6.425781 13.285156 6.304688 13.230469 6.210938 C 12.925781 5.6875 12.242188 4.726562 12.035156 4.523438 C 12.023438 4.511719 11.972656 4.449219 11.917969 4.382812 C 11.742188 4.167969 11.15625 3.578125 10.949219 3.414062 C 10.839844 3.328125 10.746094 3.242188 10.746094 3.21875 C 10.746094 3.195312 10.863281 3.09375 11 2.988281 C 11.691406 2.46875 12.304688 2.179688 13.199219 1.960938 C 13.75 1.824219 13.699219 1.828125 13.71875 1.902344 Z M 8.347656 2.488281 C 8.597656 2.511719 9.1875 2.695312 9.46875 2.839844 C 10.136719 3.171875 10.839844 3.730469 11.4375 4.382812 C 11.792969 4.777344 11.917969 4.9375 12.476562 5.699219 C 12.679688 5.980469 13.105469 6.710938 13.425781 7.320312 C 13.757812 7.953125 14.191406 8.984375 14.242188 9.257812 C 14.296875 9.542969 13.886719 10.421875 13.296875 11.269531 C 12.96875 11.746094 12.175781 12.515625 11.710938 12.808594 C 11.613281 12.871094 11.609375 12.871094 11.503906 12.785156 C 11.351562 12.667969 10.664062 12.132812 10.460938 11.972656 C 10.363281 11.902344 10.25 11.808594 10.203125 11.761719 C 10.097656 11.667969 10.039062 11.679688 10.023438 11.792969 C 10.015625 11.859375 10.054688 11.910156 10.195312 12.015625 C 10.292969 12.09375 10.429688 12.203125 10.503906 12.261719 C 10.640625 12.367188 11.203125 12.800781 11.359375 12.917969 L 11.449219 12.984375 L 11.289062 13.082031 C 11.203125 13.136719 11.125 13.183594 11.113281 13.183594 C 11.09375 13.183594 10.976562 13.09375 10.589844 12.800781 C 10.144531 12.460938 9.878906 12.253906 9.773438 12.167969 C 9.707031 12.109375 9.636719 12.054688 9.617188 12.042969 C 9.601562 12.027344 9.523438 11.972656 9.453125 11.917969 C 9.382812 11.859375 9.300781 11.824219 9.269531 11.839844 C 9.175781 11.875 9.214844 11.992188 9.351562 12.09375 C 9.476562 12.183594 9.636719 12.300781 10.238281 12.777344 C 10.355469 12.871094 10.550781 13.015625 10.667969 13.105469 C 10.789062 13.195312 10.886719 13.277344 10.886719 13.285156 C 10.886719 13.296875 10.796875 13.347656 10.683594 13.398438 C 9.605469 13.898438 8.375 14.105469 7.160156 13.980469 C 6.738281 13.9375 5.949219 13.753906 5.539062 13.601562 C 5.21875 13.480469 4.785156 13.289062 4.804688 13.269531 C 4.835938 13.242188 5.609375 12.628906 5.773438 12.503906 C 6.3125 12.09375 6.472656 11.953125 6.460938 11.898438 C 6.441406 11.792969 6.332031 11.824219 6.078125 12.015625 C 5.941406 12.125 5.75 12.273438 5.652344 12.347656 C 5.558594 12.421875 5.339844 12.589844 5.164062 12.726562 C 4.996094 12.863281 4.792969 13.015625 4.71875 13.066406 L 4.585938 13.160156 L 4.429688 13.078125 C 4.347656 13.03125 4.277344 12.980469 4.277344 12.96875 C 4.277344 12.953125 4.335938 12.902344 4.410156 12.84375 C 4.480469 12.792969 4.585938 12.710938 4.648438 12.660156 C 4.707031 12.613281 4.800781 12.539062 4.855469 12.496094 C 5.328125 12.140625 5.667969 11.851562 5.667969 11.8125 C 5.667969 11.785156 5.648438 11.746094 5.621094 11.726562 C 5.582031 11.695312 5.492188 11.75 5.183594 11.988281 C 4.96875 12.160156 4.75 12.328125 4.699219 12.363281 C 4.652344 12.402344 4.492188 12.523438 4.351562 12.636719 C 4.207031 12.746094 4.074219 12.832031 4.046875 12.820312 C 3.980469 12.792969 3.601562 12.496094 3.359375 12.277344 C 2.613281 11.601562 2.074219 10.855469 1.691406 9.972656 C 1.464844 9.445312 1.449219 9.386719 1.496094 9.210938 C 1.542969 9.039062 1.789062 8.410156 1.949219 8.050781 C 2.109375 7.691406 2.539062 6.847656 2.613281 6.742188 C 2.652344 6.691406 2.679688 6.644531 2.679688 6.632812 C 2.679688 6.601562 2.996094 6.089844 3.195312 5.789062 C 3.804688 4.886719 4.472656 4.132812 5.160156 3.558594 L 5.296875 3.445312 L 5.445312 3.679688 C 5.527344 3.808594 5.683594 4.050781 5.792969 4.226562 C 5.902344 4.398438 6.054688 4.640625 6.132812 4.765625 C 6.269531 4.992188 6.316406 5.0625 6.546875 5.425781 C 6.613281 5.53125 6.75 5.753906 6.855469 5.917969 C 6.996094 6.144531 7.054688 6.210938 7.101562 6.199219 C 7.144531 6.1875 7.160156 6.160156 7.148438 6.109375 C 7.140625 6.070312 7.09375 5.816406 7.042969 5.546875 C 6.996094 5.28125 6.90625 4.816406 6.851562 4.523438 C 6.796875 4.226562 6.714844 3.792969 6.679688 3.566406 C 6.640625 3.335938 6.59375 3.09375 6.574219 3.027344 C 6.519531 2.832031 6.527344 2.71875 6.613281 2.695312 C 6.652344 2.683594 6.6875 2.679688 6.695312 2.683594 C 6.699219 2.6875 6.730469 2.796875 6.757812 2.921875 C 6.789062 3.046875 6.871094 3.347656 6.9375 3.601562 C 7.003906 3.847656 7.105469 4.222656 7.160156 4.433594 C 7.398438 5.339844 7.550781 5.890625 7.566406 5.90625 C 7.570312 5.914062 7.601562 5.914062 7.628906 5.902344 C 7.667969 5.890625 7.683594 5.789062 7.699219 5.539062 C 7.714844 5.351562 7.738281 5.074219 7.757812 4.921875 C 7.773438 4.769531 7.824219 4.230469 7.859375 3.722656 C 7.957031 2.398438 7.953125 2.429688 8.046875 2.449219 C 8.085938 2.460938 8.222656 2.476562 8.347656 2.488281 Z M 8.347656 2.488281 "/>
<path style=" stroke:none;fill-rule:nonzero;fill:rgb(0%,0%,0%);fill-opacity:1;" d="M 4.539062 8.195312 C 4.5 8.203125 4.378906 8.230469 4.269531 8.25 C 4.039062 8.300781 4.042969 8.292969 4.011719 8.785156 C 3.96875 9.46875 4.152344 9.960938 4.570312 10.28125 C 4.769531 10.429688 4.890625 10.484375 5.222656 10.558594 C 5.5 10.621094 6.082031 10.617188 6.207031 10.546875 C 6.265625 10.519531 6.292969 10.445312 6.332031 10.238281 C 6.476562 9.441406 6.277344 8.757812 5.8125 8.449219 C 5.726562 8.394531 5.546875 8.316406 5.417969 8.273438 C 5.191406 8.207031 4.683594 8.160156 4.539062 8.195312 Z M 5.265625 8.59375 C 5.390625 8.628906 5.398438 8.636719 5.335938 8.667969 C 4.945312 8.875 4.871094 9.375 5.183594 9.671875 C 5.378906 9.855469 5.613281 9.890625 5.875 9.773438 L 6.027344 9.703125 L 6.003906 9.953125 C 5.988281 10.09375 5.960938 10.21875 5.9375 10.238281 C 5.875 10.277344 5.292969 10.238281 5.113281 10.175781 C 4.777344 10.054688 4.507812 9.777344 4.410156 9.449219 C 4.347656 9.230469 4.351562 8.632812 4.417969 8.589844 C 4.492188 8.546875 5.097656 8.550781 5.265625 8.59375 Z M 5.265625 8.59375 "/>
<path style=" stroke:none;fill-rule:nonzero;fill:rgb(0%,0%,0%);fill-opacity:1;" d="M 10.800781 8.199219 C 10.625 8.21875 10.285156 8.316406 10.15625 8.382812 C 9.625 8.660156 9.398438 9.347656 9.539062 10.261719 L 9.582031 10.519531 L 9.738281 10.566406 C 9.957031 10.632812 10.558594 10.601562 10.839844 10.515625 C 11.351562 10.347656 11.667969 10.007812 11.808594 9.472656 C 11.859375 9.265625 11.875 8.734375 11.832031 8.453125 L 11.808594 8.296875 L 11.53125 8.238281 C 11.265625 8.179688 11.027344 8.171875 10.800781 8.199219 Z M 11.445312 8.589844 C 11.53125 8.644531 11.507812 9.285156 11.414062 9.546875 C 11.253906 9.996094 10.785156 10.261719 10.160156 10.261719 C 10.050781 10.261719 9.945312 10.246094 9.921875 10.230469 C 9.894531 10.214844 9.867188 10.097656 9.855469 9.953125 L 9.832031 9.703125 L 9.984375 9.773438 C 10.28125 9.90625 10.558594 9.839844 10.757812 9.59375 C 10.867188 9.460938 10.914062 9.230469 10.871094 9.0625 C 10.84375 8.957031 10.691406 8.773438 10.558594 8.691406 L 10.460938 8.628906 L 10.578125 8.597656 C 10.730469 8.554688 11.378906 8.550781 11.445312 8.589844 Z M 11.445312 8.589844 "/>
<path style=" stroke:none;fill-rule:nonzero;fill:rgb(0%,0%,0%);fill-opacity:1;" d="M 7.339844 11.324219 C 7.136719 11.351562 6.914062 11.390625 6.839844 11.414062 C 6.722656 11.445312 6.714844 11.453125 6.753906 11.507812 C 7.132812 11.992188 7.671875 12.59375 7.742188 12.613281 C 7.824219 12.632812 7.824219 12.644531 7.824219 12.941406 C 7.824219 13.226562 7.828125 13.253906 7.894531 13.253906 C 7.957031 13.253906 7.964844 13.226562 7.964844 12.957031 C 7.964844 12.675781 7.96875 12.65625 8.046875 12.628906 C 8.121094 12.597656 8.375 12.328125 8.695312 11.929688 C 8.761719 11.847656 8.875 11.710938 8.949219 11.625 C 9.113281 11.433594 9.109375 11.429688 8.65625 11.355469 C 8.15625 11.277344 7.746094 11.265625 7.339844 11.324219 Z M 7.339844 11.324219 "/>
</g>
</svg>
